<svg xmlns="http://www.w3.org/2000/svg" viewBox="0 0 2026.95 910.51"><defs><style>.cls-1,.cls-2,.cls-3,.cls-4,.cls-5,.cls-6,.cls-7{fill:none;stroke:#0a9dd9;stroke-linecap:round;}.cls-1,.cls-4,.cls-5,.cls-6,.cls-7{stroke-miterlimit:10;}.cls-1,.cls-5,.cls-6{stroke-width:3px;}.cls-2,.cls-3{stroke-linejoin:round;stroke-width:5px;}.cls-2{stroke-dasharray:167.55 118.62;}.cls-3{stroke-dasharray:176.89 125.23;}.cls-4,.cls-7{stroke-width:8px;}.cls-4{stroke-dasharray:0 25.07;}.cls-5{stroke-dasharray:0 15.02;}.cls-6{stroke-dasharray:0 15.02;}.cls-7{stroke-dasharray:0 25.02;}</style></defs><title>Orbit - Blue</title><g id="Layer_2" data-name="Layer 2"><g id="Layer_1-2" data-name="Layer 1"><ellipse class="cls-1" cx="1005.87" cy="511.14" rx="337.56" ry="819.74" transform="translate(464.26 1500.94) rotate(-88.25)"/><ellipse class="cls-1" cx="1005.87" cy="429.38" rx="230.95" ry="590.23" transform="translate(554 1425.36) rotate(-88.71)"/><ellipse class="cls-1" cx="1005.87" cy="484.33" rx="302.64" ry="744.52" transform="translate(138.39 1187.06) rotate(-64.72)"/><ellipse class="cls-1" cx="1005.87" cy="464.19" rx="272.2" ry="682.75" transform="translate(516.36 1457.98) rotate(-88.55)"/><ellipse class="cls-1" cx="1005.87" cy="426.54" rx="547.11" ry="199.12" transform="translate(-15.46 38.48) rotate(-2.17)"/><ellipse class="cls-1" cx="1005.87" cy="511.14" rx="381.79" ry="927.14" transform="translate(464.26 1500.94) rotate(-88.25)"/><ellipse class="cls-2" cx="917.8" cy="464.19" rx="297.62" ry="746.5" transform="translate(430.52 1369.94) rotate(-88.55)"/><ellipse class="cls-1" cx="1005.87" cy="426.54" rx="123.08" ry="338.18" transform="translate(399.23 1335.22) rotate(-79.25)"/><ellipse class="cls-3" cx="1042.23" cy="484.33" rx="212.75" ry="523.39" transform="translate(528.5 1512.39) rotate(-88.37)"/><ellipse class="cls-4" cx="1081.01" cy="455.26" rx="242.13" ry="665.28" transform="translate(612.4 1530.54) rotate(-89.29)"/><ellipse class="cls-5" cx="917.8" cy="464.19" rx="907.74" ry="361.91" transform="translate(-11.45 23.38) rotate(-1.45)"/><ellipse class="cls-1" cx="1031.37" cy="441.14" rx="150.65" ry="413.91" transform="translate(577.49 1466.96) rotate(-89.29)"/><ellipse class="cls-1" cx="1005.87" cy="455.26" rx="419.63" ry="1019.04" transform="translate(371.88 1359.18) rotate(-79.31)"/><ellipse class="cls-6" cx="1081.01" cy="455.26" rx="538.11" ry="195.85" transform="matrix(0.99, -0.13, 0.13, 0.99, -51.19, 148.7)"/><ellipse class="cls-7" cx="1031.37" cy="455.26" rx="362.55" ry="996.13" transform="translate(472.55 1434.39) rotate(-84.1)"/><ellipse class="cls-1" cx="1031.37" cy="464.19" rx="244.54" ry="624.96" transform="translate(199.31 1230.26) rotate(-66.87)"/></g></g></svg>