<?xml version="1.0" encoding="utf-8"?>
<!-- Generator: Adobe Illustrator 27.8.1, SVG Export Plug-In . SVG Version: 6.00 Build 0)  -->
<svg version="1.1" id="Layer_1" xmlns="http://www.w3.org/2000/svg" xmlns:xlink="http://www.w3.org/1999/xlink" x="0px" y="0px"
	 viewBox="0 0 100 100" style="enable-background:new 0 0 100 100;" xml:space="preserve">
<style type="text/css">
	.st0{fill-rule:evenodd;clip-rule:evenodd;}
</style>
<path class="st0" d="M76,49c-0.9-1.6,0.1-3.2-0.4-3.8c-0.4-0.6-0.9-1.2-0.4-2s1-0.8,0.4-1.8c-0.6-0.9-1.7-2-1.4-2.3
	c0.3-0.3,1.2,0.9,1.7,1.1s2.1,0.3,2.5,0.1c0.4-0.1,1-0.5,1.4-0.1c0.5,0.3,1,0.7,1,1s-0.5,0.9-1.3,0.8c-0.8-0.1,0,1.5-0.6,1.8
	c-0.6,0.2-1.7,0.5-2.1,0.5s-0.9-0.1-0.3,0.7c0.6,0.8,1,1,1.7,1.2c0.6,0.3,1.4,0.3,1.4,1.5s-0.5,2.3-0.2,3.2c0.2,0.9,1.4,1.7,0.8,2.5
	s-1.2,1.3-1.8,1.6s-0.8,0-1.1,1s-0.9,1.7-1.8,1.1s-1.3-0.2-1.6,0.1c-0.3,0.3-0.9,0.3-0.5,1.1c0.3,0.8,0.1,1.2-0.4,1.2s-1-0.2-0.9,1
	c0.1,1.1,0,1.7-0.8,1.5c-0.7-0.2-0.1-1.1-0.3-1.6s-1.3,0.1-1.5-0.5s1.4-1.1,1.7-2.5s1-2.1,1.6-2.1c0.6-0.1,1.3-1.6,1.4-2.6
	c0.1-1,0.6-0.2,1.4-1.5S76.9,50.6,76,49L76,49z"/>
<path d="M43,49.5c0.2,0,1.2-0.7,1.2-0.7h1.2l0.9,0.7L44.5,50L43,49.5C43,49.5,43,49.5,43,49.5z M42.8,48.8h-1.6l-2.8-1.9l1.5,0.2
	L42.8,48.8z M42.7,19.8l0.5,1l1.6,1.1v1l-1.4-0.8l1.2,1.4v1.1l-1.5-0.4L41.7,23l0.4-1.3l-1.4-1.5c0,0-1.8,0-1.9,0s-0.4-0.8-0.4-0.9
	s0.8-0.9,0.8-0.9l1.8,0.3L42.7,19.8z M43.1,13.9l1-1.2l2.5,0.4l3.7,2.4l0.3,0.7l1.5,1.1v1.1l-0.6,0.8v1L50.9,21l0.7,3.2
	c0,0-1.5,0-1.6,0s-2.6-2.6-2.8-2.6c0,0,0,0,0,0c0,0,0,0,0,0c-0.1,0-0.8-2.2-0.8-2.2L44,17.1c0,0-1.4,0-1.4,0c-0.1,0-0.8-0.9-1-0.9
	c0,0,0,0,0,0l0.7-0.7v-0.7L43.1,13.9z M38.6,14.8c0,0,2.3-0.9,2.4-0.9c0.1,0,1.3,0.2,1.3,0.2L41,16.7l-0.4,0.4l-1.7-0.3l0.6-0.8
	l-0.9-0.4V14.8z M38.6,16.7l0.4,0.9h1.4l0.2,0.8c0,0-1.8-0.3-2.1-0.4c-0.2-0.1-0.6-1.2-0.7-1.3C37.9,16.7,38.6,16.7,38.6,16.7z
	 M35.3,15.5V16l0.2,0.6l0.5-0.4l0.3,0.6l-0.6,0.3c0,0-0.4,0-0.7,0c-0.1,0-0.3,0-0.3,0c0,0,0,0,0,0c-0.1,0-0.9-1.4-0.9-1.4L35.3,15.5
	z M35.8,20.2c0,0-0.6,0.2-0.8,0.2c0,0-2.2-0.6-2.2-0.6l-0.3-1.5l1.4-0.8l0.9,0.6l0.7-0.2C35.5,18.2,35.8,20.2,35.8,20.2z M31.9,17
	c0,0,1.1-0.8,1.3-0.8c0,0,0,0,0,0c0.1,0,0.7,0.6,0.7,0.6v0.5L32.2,18h-0.6L31.9,17z M65.3,64.9l-1.8,2.2l-0.2,2.1L62.1,72
	c0,0-0.9,1.2-1,1.2c-0.1,0-1.2,0.2-1.2,0.2l-2.5,1.3c0,0-0.3,1.5-0.4,1.7c-0.1,0.1-3.7,3.8-3.7,3.8l-2-0.3l0.6,1.2l-0.7,1.1
	l-2.3,0.4l-0.3,0.9l-1.3,0.1v1.1l-1.6,1.7l0.7,0.6l-1.8,1.7l0.3,1.5l1,0.6h-1.5l-1.1-0.4l-1.3-2.4l0.8-2.4l0.2-3.8l1.5-5.3l0.7-5
	l-3.5-2.6l-3-5.5l0.4-0.7l-0.3-0.8l0.4-1.6l0.6-0.4l0.2-0.6l0.6-0.7l0.2-1.7l-0.6-0.8l-0.4-0.9l-0.8,0.4l0.2,0.5h-0.5l-1-0.4
	l-1.7-1.2l-0.2-0.7l-1.2-1.1l-1.9-0.6l-0.5-0.6l-1.3-0.9l-1.1,0.2L26.9,49l-1-1.2v-1.3l-2.1-3.9l-0.6-1.8l-0.6-0.9l0,1.1l1,3.5
	l0.3,1.1l-1.1-1.6L22,41l-0.3-1.9l-0.9-1.7c0,0-0.4-3.5-0.4-3.6c0-0.1,0.9-1.9,0.9-1.9l1.3-2.7l-0.3-1.5l0.4-0.4l0.5-2.4v-3.7
	l-0.5-0.9l-0.4-1.2l-0.5,0.3L20.9,19l1-0.6l-1.5,0.1L20.2,19h-2l-0.8-0.3l1.9-0.5l-0.2-0.8l0.2-0.7l0.9-0.9l1.2-0.6l0.7,0.6l0.5-0.3
	l-0.3-0.9l0.6-0.7l0.9,0.4l-0.3,0.1l0.3,0.4l0.9-1.2l0.6-0.3l2.3,0.7l-0.1,0.6l1,2.9c0,0,1.8,0,1.8,0.1c0.1,0.1,1.8,2.4,1.8,2.4
	l2.1,0.6c0,0,1,0.4,1.1,0.4c0,0,0,0,0,0c0.1,0,0.9-1,0.9-1v1.3l0.6-0.4l-0.3-0.9l0.7-0.8c0,0-0.7,0-0.9,0.1c0,0,0,0,0,0
	c-0.1,0,0-1.2,0-1.2h1.2l0.7,0.4l-0.9,0.8l0.5,0.6l-0.3,0.6l0.8,0.5l0,0.9l0.7-1.2l0.9,0.4l-0.3,1.4l-0.9-0.1l-0.6,1.1l-1.3,0.6
	l-1.5,1.7l0.3,1.5l0.8-0.1l1.5,1.2l1.3,0.2L39,29.5l1.1,1.3l0.4-0.8l-0.3-1.4l1.2-0.9l-0.9-1.2l0.3-0.6l-0.3-1.4l1.4,0l1.3,0.8
	l0.2,1.1l0.7,0.2l0.6-1l1.2,1.7l1.9,1.1l1.1,0.9L49,29.8l0.3-0.2l0,1.1l1.2-0.1c0,0,0.6,1.4,0.6,1.5c0,0-0.5,0.1-1,0.1
	c-0.7,0-1.6,0-1.6,0l0.4-1.8l-0.2-0.4l-1.3,1l-1.6-0.2l-1.6,1.4l1.3-0.8l0.9,0.1l-0.6,0.7l0.7,0.9l1.6,0.4l-1.9,1.2L45.6,34
	c0,0-1.3,0.8-1.5,0.9s0.1,1.1,0.1,1.1l-1.2,0.5l-1,1.3l-0.5,2.1L39.1,42c0,0,0.7,2.6,0.7,2.7c0,0.1-0.4,1.2-0.4,1.2l-1-2.4l-0.6-0.8
	l-0.5,0.2l-2.1-0.5l-0.6,0.7c0,0-1.9-0.5-2.1-0.5s-1.9,0.8-1.9,0.8l0,1.2l-0.5,1.1l0.1,2.1l1.5,1.6l1.8-0.7l0.5-1.1l1.8-0.1
	l-0.6,2.6c0,0-0.8,0.7-0.9,0.8c0,0,0,0,0.1,0c0.5,0,2.4-0.1,2.4-0.1l0.8,0.5l-0.6,2.8l1.6,1.1l1.6-0.5l0.7,0.9l0.9-1.3l2.5-1.3
	l-0.3,0.7l1.5-0.2l0.6,0.5l2.6-0.1l2.2,1.1l1.7,1.6l2.8,0l1.5,2.1l-0.1,1.2l3.1,0.5l0.4,0.5l2.2-0.1l1.9,1.2h0.9
	c0,0,0.3,1.2,0.3,1.3C65.9,63.4,65.3,64.9,65.3,64.9z M47.6,32.4l-0.4-0.1c0.1-0.1,0.2-0.2,0.2-0.4c0,0,0,0,0,0c0.1,0,0.1,0,0.1,0
	C47.5,32.1,47.5,32.2,47.6,32.4z"/>
</svg>
