<?xml version="1.0" encoding="utf-8"?>
<!-- Generator: Adobe Illustrator 24.2.0, SVG Export Plug-In . SVG Version: 6.00 Build 0)  -->
<svg version="1.1" id="Layer_1" xmlns="http://www.w3.org/2000/svg" xmlns:xlink="http://www.w3.org/1999/xlink" x="0px" y="0px"
	 viewBox="0 0 408.2 56.7" style="enable-background:new 0 0 408.2 56.7;" xml:space="preserve">
<style type="text/css">
	.st0{fill:#1598D5;}
	.st1{fill:#FFFFFF;}
</style>
<g>
	<path class="st0" d="M102.5,17.8L102.5,17.8c-1.7,1.7-1.7,4.4,0,6l5.9,5.9c1.2,1.4,1.7,3.2,1.4,5c-0.1,0.2,0.1,0.4,0.3,0.5
		c0.1,0,0.3,0,0.4-0.1l1.7-1.7l2.2-2.2c2.2-2.2,2.2-5.6,0-7.8l-5.7-5.7C106.9,16.1,104.2,16.1,102.5,17.8
		C102.5,17.8,102.5,17.8,102.5,17.8z"/>
	<path class="st0" d="M137.6,52.9L137.6,52.9c1.7-1.7,1.7-4.4,0-6l-5.9-5.9c-1.2-1.4-1.7-3.2-1.4-5c0-0.1,0-0.3-0.1-0.4
		c-0.2-0.2-0.4-0.2-0.6,0c0,0,0,0,0,0l-1.7,1.6l-2.2,2.2c-2.1,2.1-2.1,5.6,0,7.8c0,0,0,0,0,0l5.7,5.7
		C133.2,54.6,135.9,54.6,137.6,52.9z"/>
	<path class="st0" d="M102.5,46.9l29.1-29.1c1.7-1.6,4.3-1.6,6,0l0,0c1.6,1.7,1.6,4.3,0,6l-29.1,29.1c-1.7,1.6-4.3,1.6-6,0l0,0
		C100.9,51.3,100.9,48.6,102.5,46.9L102.5,46.9z"/>
	<path class="st0" d="M26.9,24.8H24c-1.9,0-3.5-1.6-3.5-3.5l0,0c0-1.9,1.6-3.5,3.5-3.5c0,0,0,0,0,0h2.8v-2.6c0-4.1,1-7.1,3-9.1
		s4.6-2.9,8.3-2.9c1.3,0,2.6,0.1,3.9,0.3c1.7,0.3,2.9,1.7,2.9,3.4l0,0c0,1.9-1.6,3.5-3.5,3.5c-0.1,0-0.2,0-0.3,0c-0.4,0-0.8,0-1.2,0
		c-3.2,0-4.8,1.7-4.8,5.6v2h6.2c1.9,0,3.5,1.5,3.5,3.4c0,0,0,0,0,0l0,0c0,1.9-1.6,3.5-3.5,3.5h-6.1V50c0,2.3-1.9,4.2-4.2,4.2
		c0,0,0,0,0,0l0,0c-2.3,0-4.2-1.9-4.2-4.2V24.8z"/>
	<path class="st0" d="M53.7,3.6L53.7,3.6c2.3,0,4.2,1.9,4.2,4.2V50c0,2.3-1.9,4.2-4.2,4.2h0c-2.3,0-4.2-1.9-4.2-4.2V7.8
		C49.5,5.5,51.3,3.6,53.7,3.6z"/>
	<path class="st0" d="M64.3,35.2v-0.5c0-11.4,10.3-20.5,21.5-18.4c9.2,1.7,13.9,10,13.9,19.4l0,0c0,1.3-1.1,2.3-2.4,2.3H73.1
		c-0.2,0-0.4,0.2-0.4,0.4c0,0,0,0,0,0.1c1,5.7,5.2,8.9,10.5,8.9c2.8,0.1,5.6-0.8,7.8-2.5c1.3-1,3.1-0.9,4.3,0.1l0,0
		c1.4,1.2,1.6,3.4,0.4,4.8c-0.1,0.1-0.2,0.2-0.4,0.4c-3.5,2.8-7.9,4.3-12.3,4.1C72.5,54.2,64.3,46.5,64.3,35.2z M91,32.5
		c0.2,0,0.4-0.2,0.4-0.4c0,0,0,0,0-0.1c-0.7-5.2-3.8-9.2-9.2-9.2c-5,0-8.6,3.8-9.4,9.2c0,0.2,0.1,0.4,0.3,0.4c0,0,0,0,0.1,0L91,32.5
		z"/>
	<path class="st0" d="M142.5,51.5c0-0.5,0.1-1,0.4-1.4c0.2-0.4,0.6-0.8,1-1c0.4-0.2,0.9-0.4,1.4-0.4c0.5,0,1,0.1,1.4,0.4
		c0.9,0.5,1.4,1.4,1.4,2.4c0,0.5-0.1,1-0.4,1.4c-0.2,0.4-0.6,0.8-1,1c-0.9,0.5-2,0.5-2.8,0C143,53.4,142.5,52.5,142.5,51.5
		L142.5,51.5z M147.7,51.5c0-0.4-0.1-0.8-0.3-1.2c-0.2-0.4-0.5-0.7-0.9-0.9c-0.4-0.2-0.8-0.3-1.2-0.3c-0.4,0-0.8,0.1-1.2,0.3
		c-0.7,0.4-1.2,1.2-1.2,2.1c0,0.4,0.1,0.8,0.3,1.2c0.2,0.4,0.5,0.7,0.9,0.9c0.4,0.2,0.8,0.3,1.2,0.3c0.4,0,0.8-0.1,1.2-0.3
		c0.4-0.2,0.7-0.5,0.9-0.9C147.6,52.4,147.7,52,147.7,51.5L147.7,51.5z M146.1,52.6c0-0.2,0-0.4-0.1-0.5c0-0.1-0.1-0.2-0.3-0.2
		c-0.2,0-0.3-0.1-0.5-0.1h-0.8v1.4h-0.4V50h1.4c0.3,0,0.6,0.1,0.8,0.2c0.2,0.2,0.3,0.4,0.3,0.7c0,0.2,0,0.4-0.1,0.5
		c-0.1,0.1-0.3,0.2-0.4,0.3l0,0c0.2,0,0.3,0.1,0.4,0.3c0.1,0.2,0.1,0.4,0.1,0.6c0,0.2,0,0.4,0.1,0.6h-0.4c0-0.1-0.1-0.1-0.1-0.2
		C146.1,52.9,146.1,52.8,146.1,52.6z M146.1,50.8c0-0.3-0.3-0.5-0.8-0.5h-0.9v1.1h0.9c0.2,0,0.4,0,0.6-0.2
		C146.1,51.2,146.2,51,146.1,50.8L146.1,50.8z"/>
	<g>
		<path class="st1" d="M199.3,48V21.3l5.9-5.9h21.6l5.6,5.6v6.7h-10.6v-3.3l-1.2-1.2h-8.8l-1.9,1.9v19.6l1.9,1.8h8.8l1.2-1.2v-5.4
			H214v-7.7h18.5v16.2l-5.6,5.6h-21.6L199.3,48z"/>
		<path class="st1" d="M245.1,15.4h15.8L271.1,54h-11l-1.7-7.5h-11.6L245,54h-10.1L245.1,15.4z M248.6,38.6h7.9l-3.9-17.1
			L248.6,38.6z"/>
		<path class="st1" d="M273.2,48V21.3l5.9-5.9h20.7l6,5.9v8.1h-10.6v-4.5l-1.7-1.7h-7.8l-1.9,1.9v19.5l1.9,1.8h7.8l1.7-1.7v-4.9
			h10.6V48l-6,5.9h-20.7L273.2,48z"/>
	</g>
</g>
</svg>
