<?xml version="1.0" encoding="UTF-8"?><svg id="Layer_1" xmlns="http://www.w3.org/2000/svg" viewBox="0 0 100 100"><defs><style>.cls-1{fill-rule:evenodd;stroke-width:0px;}</style></defs><path class="cls-1" d="m5.74,64.84c-.26-.34-.28-.74-.12-1.32.24-.87.21-1.09.99-1.76.65-.41.96.1,1.53.47.57.37,1.7.54,2.25.38.55-.16.99-.48,1.27-.85s1.42.12,1.91,0c.49-.12,1.52-.44,2.17.47.64.91,1.13.65,1.7.28.57-.38,1.3-.77,1.58-.13.28.64.68,1.15,1.51.77.83-.38,1.63-.77,2.07-.77s1.14-.07,1.5-.62c.36-.55.14-.88-.15-1.54s-.11-1.41.15-1.58c.27-.17.68-.49.47-1.01s-.97-.39-1.19-.45c-.22-.06.07-1.58-.28-1.82-.35-.24-.94-.84-.94-1.48s.65-1.75,1.22-2.29c.57-.53-.67-1.66-1.05-2.22s-.3-1.65-.68-2.24c-.38-.59.47-1.22.82-1.75s.07-1.68,1.09-1.91,2.5-.11,3.18-.58c.68-.47,1.42-.58,2.06,0,.63.58,1.26-.76,1.54-1.31.28-.55,1.37-.42,1.69-.83.32-.41-.89-1.68-.64-2.28.25-.59,2.29-.97.73-1.99-1.56-1.01-2.57-.54-1.52-2.23s.26-1.06,0-2c-.26-.93-.03-4.28-.26-4.85-.23-.56-.11-2.12.79-3.09.9-.97.77-2.93.52-3.59-.26-.67-.81-.67-.62-1.4.2-.73,2.15,1.46,1.5-.45-.19-.56-1.01-.49-1.01-1.45,0-.56,1.36-.72.43-1.38-.93-.66.16-.61.16-1.13s-.17-1.19.67-.71c.83.48,1.39.82,1.79.82s.66.49-.29,1.68c-.95,1.19.48.87.77,1.86.29,1,.15,2.46,1.22,2.46s1.29-.7,1.73-.35c.45.35,1.57.65,1.57-.5s-.71-1.11-1.84-.86c-1.13.25-1.03.11-1.03-.45s-.62-.16-.62-.81.5-.96,0-1.36c-.5-.39-.33-.93.18-.8.51.13,1.3.4,1.59.96s.97.7,1.41.42c.43-.28-.41-.46-.41-.91s.16-1.08-.48-1.45c-.64-.37-.5-.88-.37-1.02.12-.14.32-.04,1.81.54,1.49.59,2.16.16,1.33-.69-.82-.86-2.87.13-2.37-1.09.49-1.22,1.94-.08,2.16-.61.22-.53-.66-1.14.07-1.52.73-.37,1,.29,1.57-.58.57-.86.89-.37,1.69-.94.8-.57,1.26.12,1.85-.12.59-.24.62-.72,1.25-.84.63-.12,0,.65.63.65s1.44-1.61,2.02-1.29.19,1.02.91,1.48c.72.46,1.11-.51,1.52-.42.41.09.26.71.73.97.47.26.36.47-.38,1.26s-.63.97-.87,1.25c-.24.28-.95.38-1.31.92-.36.53-.38.58,0,.87.38.29,1.18-.24,1.55-.67.37-.42,1.03-1.49,1.76-1.3.73.18,1.98.03,2.46-.2s1.43.34,2.25.71c.82.37,1.26-.98,1.71-1.28.28-.19.41-.56.86-.49.27.04.98.22.98.77,0,1.24.34,1,1.46,1.58.39.2-.13,1.21,1.59.34,1.72-.87,1.92-.14,2.35-.46.44-.32,1.34-1.12,2.19-.79.85.33,1.04.43,1.88.22.84-.22,1.53.29,1.31,1.13-.22.83.76.29,1.1.45.35.15-.21.57.32.69.53.13.46-.54,1.43-.54s1.72-.12,2.45.54c.73.67,1.46.23,2.01.23s1.67,1,2.41-.23c.74-1.23,1.39-.34,1.81-.34s1.62-.14,1.79.34c.17.48.32.59.92.59s.56.17.75.53c.19.36.98.05,1.18.36.2.31,1.63,1.18,1.71,1.51.09.33.04,1.24,1.05.79,1-.45.96.23,1.15.36.2.13,1.34.21,1.63.75.3.54.47,2.28-.92,2.55-1.39.27-1.76-.25-1.98-.85-.22-.6-2.07-.71-2.35-.24-.29.47.35.45.89,1.09.54.63.33,1.2-.68,1.69-1,.49-1.46,1.87-1.68,2.44-.22.57-.13,1.06-1.33.76-1.2-.3-1.64-.29-1.64,1.08s1.12,2.73,1.12,3.56.08,1.61-.18,2.13-.79.55-.46,1.65c.34,1.1.25,2.11-.73,1.6-.98-.51-1.89-.96-2.12-2.66-.23-1.7-.68-2.5-.34-3.55s.69-2.73.58-3.11c-.11-.38-.96-.59-1.12-1.31-.16-.72-.83-1.29-1.28-1.18s.07,1.64-.09,1.89c-.16.25.99,1.09.29,1.24-.7.15-1.04-.25-1.72-.39-.67-.15-.65.37-.95.53-.3.16-.93-.25-1.15-.25s-.63.33-1.23.33-1.34.23-1.72.81c-.38.58-.29,1.3-.73,1.6s-.94,1.47-.53,1.86c.41.39,1.05.07,2.01.28s.73.82,1.17,1.03c.44.21,1.31-.24,1.31.94s0,1.86.43,2.56c.43.7,1.04,2.83.92,3.45-.12.62-.4,3.75-.21,4.28.19.53-1.05,2.36-1.55,2.67s-1.01,1.27-1.01,2.02.13.67-.29,1.14-.27.73.29,1.02c.55.3,1.55.72,1.7,1.4.15.68.75.79.75,1.25s-1.85,4.55-1.85,1.89-.4-1.07-1.27-1.56-.23-1.47-.98-1.58c-.75-.11-1.09.03-1.43-1.2-.34-1.23-1.39,1.75-2.12,1.89-.73.14-.05,1.03,1.04,1.03s2.96.51,1.84,1.21c-1.13.7-1.44,1.29-.58,2.56.86,1.27,1.73,1.94,1.73,2.36s-.52.55.11,1.18c.64.64.02.91.4,1.79.37.88-.02,3.57-.21,4.18-.19.61,0,1.34-1.1,1.76-1.09.42-.54,1.81-1.36,2.38-.82.57-.1.91-1.11,1.08-1.01.16-.55.99-1.02,1.33-.47.34-.67,1.02-1.53.51-.85-.51-1.39-1.35-1.94-.51-.56.84-.58,2.12,0,2.48.58.36,1.47.84,1.47,1.41s.04.74.48.74,1.19.77,1.06,1.57c-.13.8,1.56,1.22,1.08,2.73s-.27,2.54-1.29,3.51c-1.02.97-.65,2.61-1.74,1.04-.24-.34-.14-1.91-1.06-2.5-.92-.6-.63-1.13-1.53-.53s-1.59.6-.73,1.47c.86.88,2.1,4.12,1.28,4.12s-2.18-.8-2.56-2.8c-.38-2-1.04-1.77-.89-3.21.15-1.44.03-2.13-1.69-2.58s-2.26-1.48-2.67-2.16-.86-.74-.97-1.67-.65-1.15-1-1.64c-.35-.5-1.21-.79-1.21.27s-1.27.67-1.44.67-1.17,2.76-1.3,3.54c-.13.77-.95,1.37-.95,2.47s-.18,2.07-.49,2.65c-.32.58-.36,2.63-.36,3.32s-.05,1.37-.61,1.61c-.56.24,0,1.17-.74,1.36s-.84.08-1.52-1.11c-.68-1.2-.49-2.08-.98-2.52s-1.23-1.28-1.23-1.8-.9-1.47-.9-1.82-.1-1.35-.61-1.84-.69-1.86-.48-2.58c.2-.72.94-1.47.48-1.93s-.52.18-1.08.35-.81-.89-1.12-1-.52-.77,0-1.37c.52-.6-.63-.39-1.25-.81s-.66-1.38-1.43-1.66c-.77-.29-1.91.16-2.35.73-.44.57-1.9,2.42-2.55,1.75-.65-.68.21-1.39-.63-1.57-.84-.18-.3,1.19-1.29,1.19s-1.5-.08-1.78-1.19c-.27-1.11.75-1.97-.21-2.45-.97-.48-2.7-.06-2.7.85s1.22,1.45,1.22,2.03.57,1.31,1.13,1.68c.56.37.37,1.35,1.22,1.35s1.48-.78,1.95-.52c.46.26,2.49.5,2.49,1.47s.92,5.41-2.49,7.89c-.67.48-.98-.29-1.26,1.25s-6.31,3.13-7.46,2.12c-1.15-1,.05-2.46-1.01-3.92-1.06-1.46-3.35-1.49-3.65-3.51-.29-2.01-2.95-2.61-2.95-3.64s.2-2.25-.42-2.37c-.63-.13-.08,1.59-1.29,1.07-1.21-.51-1.8-2.28-1.24-2.01.56.27,2.15-.39,2.15-1.3s.59-1.93.48-2.94c-.1-1.01-.53-1.37-.32-2.04.21-.67.26-1.06-.41-1.06s-.65,1.01-1.8.79-1.38.25-1.78-.27c-.4-.52-.96-.67-1.15.27s-.96,1.04-1.11.38c-.16-.65,0-.98-1.21-.98s-.58-.97-.84-1.62c-.27-.65-.6-.41-.86-.89-.25-.48.15-.83.46-1.12.31-.29-.06-.81-.47-.91-.41-.08-.7-.23-.88-.46Z"/><path class="cls-1" d="m84.02,48.96c-.91-1.61.08-3.22-.36-3.77-.44-.56-.94-1.24-.37-2,.57-.76.97-.84.37-1.75-.6-.92-1.68-1.98-1.36-2.31.32-.32,1.15.94,1.73,1.11s2.05.27,2.47.13c.43-.14.97-.47,1.45-.13.48.34,1.02.67,1.02,1.05s-.51.94-1.31.83c-.79-.1-.04,1.53-.64,1.78-.59.25-1.69.53-2.08.53s-.9-.08-.35.7c.55.78,1.03.96,1.65,1.25.63.28,1.42.29,1.42,1.49s-.49,2.32-.25,3.21c.25.89,1.36,1.67.83,2.53s-1.22,1.34-1.75,1.58-.82.04-1.13,1.05c-.31,1.01-.9,1.65-1.81,1.07s-1.31-.22-1.63.08c-.33.3-.86.3-.51,1.14.34.85.05,1.2-.37,1.2s-1.04-.16-.95.96c.08,1.12-.03,1.73-.77,1.49-.73-.24-.14-1.13-.28-1.56-.14-.43-1.32.11-1.51-.5-.19-.61,1.4-1.09,1.68-2.54.28-1.45.97-2.08,1.55-2.14.57-.06,1.33-1.63,1.41-2.62.08-.99.61-.18,1.4-1.47.79-1.29,1.37-.77.46-2.38Z"/></svg>