<?xml version="1.0" encoding="utf-8"?>
<!-- Generator: Adobe Illustrator 27.8.1, SVG Export Plug-In . SVG Version: 6.00 Build 0)  -->
<svg version="1.1" id="Layer_1" xmlns="http://www.w3.org/2000/svg" xmlns:xlink="http://www.w3.org/1999/xlink" x="0px" y="0px"
	 viewBox="0 0 100 100" style="enable-background:new 0 0 100 100;" xml:space="preserve">
<style type="text/css">
	.st0{fill-rule:evenodd;clip-rule:evenodd;}
</style>
<path class="st0" d="M84,49c-0.9-1.6,0.1-3.2-0.4-3.8c-0.4-0.6-0.9-1.2-0.4-2s1-0.8,0.4-1.8c-0.6-0.9-1.7-2-1.4-2.3
	c0.3-0.3,1.2,0.9,1.7,1.1s2.1,0.3,2.5,0.1c0.4-0.1,1-0.5,1.4-0.1c0.5,0.3,1,0.7,1,1s-0.5,0.9-1.3,0.8c-0.8-0.1,0,1.5-0.6,1.8
	c-0.6,0.2-1.7,0.5-2.1,0.5s-0.9-0.1-0.3,0.7c0.6,0.8,1,1,1.7,1.2c0.6,0.3,1.4,0.3,1.4,1.5s-0.5,2.3-0.2,3.2c0.2,0.9,1.4,1.7,0.8,2.5
	s-1.2,1.3-1.8,1.6s-0.8,0-1.1,1s-0.9,1.7-1.8,1.1s-1.3-0.2-1.6,0.1c-0.3,0.3-0.9,0.3-0.5,1.1c0.3,0.8,0.1,1.2-0.4,1.2s-1-0.2-0.9,1
	c0.1,1.1,0,1.7-0.8,1.5c-0.7-0.2-0.1-1.1-0.3-1.6s-1.3,0.1-1.5-0.5s1.4-1.1,1.7-2.5s1-2.1,1.6-2.1c0.6-0.1,1.3-1.6,1.4-2.6
	c0.1-1,0.6-0.2,1.4-1.5S84.9,50.6,84,49L84,49z"/>
<g>
	<path class="st0" d="M19.2,33.6c-1.2-0.6-2.5,0.9-3-0.4c-0.5-1.3,1.1-0.8,0.9-1.8c-0.2-0.9-0.3-1.2-1.5-0.8
		c-1.2,0.3-1.3-0.9-0.9-1.2c0.5-0.3,1.9-0.7,1.2-1.1c-0.7-0.4-1.6-0.2-1.6-1.5s0.6-2.2,1.3-2.2c0.7,0,0.8,0.6,1.5,0
		c0.4-0.4,0.5,0.5,0.9,0.6c0.3,0.1,1.2-0.4,1.2,0.2c0,1.5-1.1,1.2-0.3,1.8c0.9,0.6,1.3-1.1,1.3-1.6s1.3,0.5,1.8,0.4
		c0.4-0.1,0.1-0.7,0.8-0.6c0.7,0.2,1-0.2,1.5-0.2s0.7,0.2,1.3-1c0.5-1.2,2-0.8,2,0c0.1,0.8,1.2-0.4,1.4,1c0.2,1.4,0.4,1.6,1,1.6
		s1,2.5,0.2,3.3c-0.8,0.8-1-0.3-1.2,1s-0.8,1.5-1.6,1.4s-1.4,0.1-1.5-0.5c-0.1-0.6-1.4,0-1.1,1.3c0.2,1.3-0.9,0.6-1.6,0.9
		c-0.7,0.4-1,1.4-1.9,0.5C20.3,33.8,19.6,33.8,19.2,33.6z"/>
	<path class="st0" d="M6.9,54.3c-0.3,0.2-0.4-0.3-0.3-1.5C6.9,51,6,51.2,7.5,50.6C9,50,9.2,50.8,9.9,50s1.8-1.7,2.5-1.4
		c0.7,0.3,2.9,1.9,2.4,2.8c-0.4,1-1.8,1.7-3.4,1.1s-0.2,1.2-0.2,2c0,0.8-0.5,0.9,0,1.3c0.5,0.4,1.4,1.1-0.3,1.4
		c-1.7,0.4-1.4,0.6-1.9,1.1c-0.4,0.5-1.1,0.9-1.6,0.2c-0.5-0.7-0.3-0.3-1.1-0.5s-0.5-0.7,0.3-0.9s0-1,0.6-1.2c0.6-0.2,2-0.4,1.4-1.1
		C8.2,54.4,7.7,54.2,6.9,54.3z"/>
	<path class="st0" d="M13.1,40.2c0.5-0.3,1-0.7,1.3-1.3c0.4-0.8-0.5-1.5,1.1-1.5c1.6,0,2.8-0.1,2.6,0.7s-0.8,0.6-1.2,1.1
		c-0.4,0.6-0.2,0.9,0.1,1.3c0.4,0.3,0.9,0.2,1.9-0.2c1.2-0.5,2.4,1.1,0.5,3.2c-1.8,2.1-3.2,3.5-0.4,2.2c2-0.9,1.9,1.3,2.3,3.3
		c0.2,0.8,2.4,0.9,2.3,3.7c-0.2,2.8-0.5,2.2,0.8,1.5s1.9-1,2.3,0.7c0.4,1.7-0.3,1.5-1.2,2s0.2,1.5,0,2.1c-0.2,0.6-1.7,1-3.3,1
		s-2,1.4-2.9,0.5s-0.8-0.7-1.9,0.3c-1.1,1-0.9,0.1-1.4,0.6s-1.7,1.8-1.8,0.6c-0.1-1.1,0.5-1.8,1.2-2.1c0.7-0.3,2-1,1.7-1.6
		c-0.3-0.7-2.1-0.5-2.1-1.1c0-0.7,0.4-1.7,1-1.7c0.6,0,1-0.3,1.1-1.4c0.1-0.5-1.1-0.5-1.1-1s0.2-1.1,0.7-1c1,0.2,1.2,2.2,1.2-0.2
		c0-1.4-0.7-0.7-0.9-1.6c-0.1-0.5-0.2-0.7-0.6-0.8c-0.3-0.1-1.1,0.3-1.5-0.5c-0.2-0.4,0.9-0.8,0.9-1.4c0-0.6-0.6-1-1.4-1.5
		c-0.8-0.5-0.3-0.9-0.9-1.2c-0.7-0.3-1.1-1.1-0.6-1.5c0.5-0.4,1.5-0.6,0.3-1.5c-0.3-0.2-1.1,0-1.2-0.2
		C11.9,41.4,12.2,40.9,13.1,40.2z"/>
	<path class="st0" d="M55.3,75.5c-0.7,1.4-0.7,1.3-1,2.3c-0.2,0.8,0,1.2,0.5,2s-0.5,1.1-0.5,1.8c0,0.7-1.6-0.4-1.9,0
		c-0.3,0.4-0.8,1.2,0.2,1.6c1,0.3,1.3,1.7,1,2.4c-0.3,0.7-0.7,1.1,0,1.6c0.7,0.5,0.4,1.6-0.7,1.3c-1.1-0.4,0.2-0.3-1.4-0.5
		c-1.6-0.2-1.6-0.3-1.6-1.2c0-0.9-0.6-2.8-0.6-3.5c0-0.7,0.4-1.7-0.6-2.4c-0.9-0.7-1.4-0.1-1.6-2c-0.2-1.8-0.8-2.7-1.6-2.9
		s-3.3-1.7-3.5-0.8s0.7,2.4,1.2,2.4s1.5,0.4,1.6,1.5s2.2,1.8,1.6,2.3c-0.5,0.5-1.3,0.9-2,0s-1.2-0.6-1.4,0s1.3,1.2,1.1,1.7
		c-0.2,0.4-0.9,2.3-1.4,2.5c-0.5,0.3-0.8,0.1-1,0.4s0.1,1.3-1.2,1.2c-1.3-0.1-2.9-0.4-3.2-1.2s-0.1-2.2,1.3-1.6s1.8-0.1,1.9-0.6
		c0.1-0.5,0.4-1.2,0.8-1.2s-0.4-0.7-0.7-1.5c-0.3-0.8,1.3-1,0-1.6c-1.3-0.7-3.7-2-4.1-2.6c-0.4-0.6,0.3-1-1.1-1.4
		c-1.5-0.4-1.7,1.4-3.2,1.1c-1.5-0.3-0.6-0.8-1.9-1s-1.3,1.4-1.4,1.9c-0.1,0.5-0.1,1.3-0.8,1.3c-0.7,0-0.8,1.4-0.8,2.1
		s0.2,1.9,0.8,2.9c0.6,0.9-0.4,1.7-0.8,2.2s-0.9,1.6-1.1,2.5c-0.2,0.9-1.3,0.1-2,0.5c-0.6,0.4,0.2,0.9-1.1,1.3s-1.1-0.2-2.4-0.2
		c-1.3,0-1.7-1.3-2.4-1.5c-0.7-0.2-0.6,0.7-2.1,0.5c-1.5-0.2-2.1,0.1-2.1-1s0-1.1-0.8-1.1c-0.8,0-1.2-0.1-0.8-1.2s2-3.9,2-4.8
		c0-0.9-1.4-1.4-1.5-2.1c-0.1-0.7-0.7-1.4-0.7-1.8s-0.1-0.6,0.8-1.2c0.9-0.6,0.9-1.2,1.4-1.2s0.5,0.6,0.9,1.2s2.8,0.1,3.1-0.1
		s1.4,0.3,1.8,0s1.7-1.5,1.7-1.9s-1.2-0.2-0.6-1.3s1.2-1.6,0.2-2.1c-1-0.5-1.6-0.3-1.8-1.4c-0.2-1.1-0.9-1.1-1.4-1.4
		c-0.5-0.2-1.1-1-0.1-1.7c1-0.7,2.5,0,3.3,0s0.9-1.8,1.5-2c0.6-0.2,1.2,0.3,1.6,0c0.4-0.3,0.9-0.6,1.5,0c0.7,0.6,0.7-2,1.8-2.9
		c1.1-0.9,1.4-0.6,2-0.6c0.6,0,0.6-1.4,1-1.7s0.8-0.8,0.9-1.2c0.1-0.4,0.7-0.5,0.8-1.2c0.1-0.7,0.1-1.1,1.1-1.1c1,0,1.2-2.6,1.5-3
		c0.2-0.4,1-1.7,1.7-2.3c0.7-0.6,2-2.1,2-2.6c-0.1-1.9,0.4-2.2,0.1-2.8c-0.3-0.6-1.4-1.1-1-2.1c0.3-1,1.1-1.5,1.9-1.1s1.1,1.4,1,2.4
		c-0.2,1-0.5,1.9,0.3,2.2s1.8,0,3.9,0.2c2,0.2,2.3-0.8,3.2-1.2c0.9-0.4,2-0.4,2.9,0c0.8,0.4,1.6,0.3,0.8-1.5
		c-0.8-1.8-0.1-1.7,0.3-2.6c0.4-0.9,0.4-1.3,0.4-1.6s1.2-0.7,1.2,0.2s0.5,1.2,0.9,1.2c0.4,0,0.9-0.6,0.4-1.7
		c-0.5-1.1-1.1-0.4-1.7-1.7C53,36,53.5,35.9,54,35.7c0.5-0.3,1.2,0.1,2.1-0.3c0.9-0.4,2.7,0.8,2.9-0.3c0.2-1.1-0.3-0.3-1.2-1.1
		s-0.7,0.1-1.5-0.2c-0.8-0.3,0.1-1.1-1.8,0c-0.9,0.5-2.1,0.2-2.8,0.2s-1-0.4-0.8-0.9c0.3-0.8,0.3-1.1,0.3-1.6c0-0.6,0.4-1.1,1-1.8
		c0.6-0.7,0.8-2.3,0-2.7c-0.8-0.4-2,0.6-2.1,1.1c-0.1,0.5,0.1,2.2-1,2.7c-1.1,0.5-1.7,0.5-1.3,1.7c0.4,1.2,2,3.9,0.8,5.2
		s-2.2,1.2-2.2,3.3s-0.8,2.6-2,2.1c-1.2-0.5-2.7-1.6-2.7-2.3c0-0.8,0.6-2.8-0.7-3.1c-1.3-0.3-0.6,1.7-2.1,1.9
		c-1.5,0.2-2.5,0.1-2.9-1.4c-0.4-1.5-1.8-0.7-1.2-2.1c0.5-1.4,0.2-2.7-0.5-3.3c-0.7-0.6-0.5-1.3,0.5-1.9s0.6-2.6,1.2-2.4
		c0.7,0.2,0.8,2.3,1.4,1.3c0.6-1-0.1-3.1,0.7-3.1s1.9,0.8,2.3-0.6s1.2-0.4,1.2-2.3s2-2.2,2.4-3.2s-0.1-1.9,1.8-2.1s1.8-1.4,2.3-1.4
		s1,0.7,1.5-0.5s0.6-0.5,2.4-1.5s2.1,0,3.2-0.6c1.1-0.6,1.1,0.3,2,0.9c0.9,0.7,3.1,0.1,4,0.5s3.8,0.9,5.8,0.9c2,0,4.9,3.9,1.7,4.2
		s-2.3-0.2-4.2,0s-3.6-0.4-2.2,1.3c1.4,1.7,2.2,0.1,2.4,1.8s0.8,2,1.5,1.6c0.7-0.4,1.2-1.1,0.5-1.6c-0.6-0.5,0.5-1.2,0.8-0.9
		c0.3,0.2,0.9,1.5,1.8,0.4c1-1.1,1.4-1.3,2-1.3c0.6,0,0.9-0.7,1.8-0.7c0.8,0-0.2,0-0.6-1.5c-0.3-1.5-1-2.6,0-2.6s1.5-0.4,2.2,0.8
		c0.7,1.3,0.1,1.9,0.6,2c0.6,0.2,1.8-0.7,2.5-1.4c0.7-0.7,1.7-1.4,2-1.4c0.3,0,1.2-0.2,1.9-0.9c0.7-0.7,2.4,0.2,3,0.2
		s1.6,0.7,2.8-0.9c1.2-1.6,1.7-0.7,3-0.6c1.4,0.1,0.6,1.3,1,2.2s0.5,3.7-0.7,5.1c-1.3,1.4-1.5,3.6-1.1,4.4s0,5.5,0.4,6.9
		c0.4,1.3,1.5,0.4,0,2.8c-1.5,2.4-0.1,1.7,2.2,3.2c2.2,1.4-0.7,2-1,2.8c-0.4,0.8,1.4,2.6,0.9,3.2c-0.5,0.6-2,0.4-2.4,1.2
		s-1.3,2.7-2.2,1.9c-0.9-0.8-2-0.7-2.9,0c-1,0.7-3.1,0.5-4.5,0.8c-1.5,0.3-1,2-1.6,2.7s-1.7,1.6-1.2,2.5c0.5,0.8,0.4,2.4,1,3.2
		c0.5,0.8,2.3,2.4,1.5,3.1c-0.8,0.8-1.7,2.3-1.7,3.2c0,0.9,0.9,1.8,1.3,2.1c0.5,0.3,0.1,2.5,0.4,2.6c0.3,0.1,1.4-0.1,1.7,0.6
		s-0.3,1.2-0.7,1.4c-0.4,0.2-0.6,1.3-0.2,2.2c0.4,0.9,0.7,1.4,0.2,2.2c-0.5,0.8-1.5,0.9-2.1,0.9c-0.6,0-1.8,0.6-3,1.1
		c-1.2,0.5-1.8-0.2-2.2-1.1c0,0,0-0.1-0.1-0.1c-0.4-0.6,0.5-1.7,0.2-2.3c-0.3-0.7-1.7-0.7-2-1.2c-0.3-0.4-0.5-1.7-1.8-1.5
		c-1.3,0.2-1.1-0.5-1.9-1.9c-0.9-1.4-0.2-2.1,0.9-2.2c2-0.1,1.8-1.7,1.6-2.2c-0.2-0.6-1-0.4-2,0.3c-0.3,0.3-2.3,0.4-3,0.8
		c-0.7,0.3-1.6,1.1-0.3,1.9c1.2,0.7,0.4,0.8-0.2,1.5s-0.8,1.6-1.3,1.2c-0.4-0.4-2-0.4-1.6-1.9c0.3-1.5-0.3-1.7-1.6-1.7
		s-1.5,0.4-1.5,1.2c0,0.6-0.4,1-1.2,1.4C57.4,69.9,56.4,73.3,55.3,75.5z"/>
</g>
</svg>
