<?xml version="1.0" encoding="utf-8"?>
<!-- Generator: Adobe Illustrator 27.8.1, SVG Export Plug-In . SVG Version: 6.00 Build 0)  -->
<svg version="1.1" id="Layer_1" xmlns="http://www.w3.org/2000/svg" xmlns:xlink="http://www.w3.org/1999/xlink" x="0px" y="0px"
	 viewBox="0 0 512 512" style="enable-background:new 0 0 512 512;" xml:space="preserve">
<style type="text/css">
	.st0{fill:#FFFFFF;}
	.st1{fill:#3A3A3A;}
	.st2{fill:#F58021;}
	.st3{fill:#67BAAF;}
</style>
<g>
	<path class="st0" d="M309.3,283.2c-1.1,2-1.8,3.4-2.5,4.7c-6.7,11.7-13.4,23.3-20,35c-3,5.3-0.5,11.3,5.1,11.5
		c2.2,0.1,4.8-1.1,6.7-2.4c21.7-15,43.4-30.1,65-45.2c3.7-2.6,7.6-3.8,12.1-3.8c21.2,0.1,42.3,0.1,63.5,0
		c21.3-0.1,37.2-15.9,37.3-37.1c0.1-31.6,0.1-63.3,0-94.9c0-3.5-0.5-7.1-1.4-10.4c-4.6-16.4-18.7-26.6-36.7-26.6
		c-43.1-0.1-86.3,0-129.4,0c-1.6,0-3.1,0.1-4.7,0.2c-18.7,1.5-33.3,16.9-33.4,35.7c-0.2,32.4-0.1,64.8,0,97.2
		c0,10.8,4.4,19.8,12.5,26.9C290.4,280.5,299.1,283.4,309.3,283.2z M202.5,268.7c1.1-0.2,1.6-0.3,2.1-0.3
		c18.4,0.5,37-15.5,36.6-38.7c-0.5-30.7-0.1-61.4-0.1-92.1c0-22.6-15.6-38.2-38.2-38.2c-43,0-86,0-129,0c-2.7,0-5.5,0-8.2,0.5
		c-18.4,3.4-30.4,18-30.4,37.3c-0.1,30.8,0,61.7,0,92.5c0,23.4,15.4,38.7,38.9,38.7c20.7,0,41.3,0,62,0c4.5,0,8.4,1.2,12.1,3.8
		c20,14,40.1,28,60.1,41.9c2.4,1.6,4.6,3.4,7.1,4.8c4.4,2.5,10,0.1,10.7-4.7c0.3-2.1-0.4-4.7-1.4-6.6
		C217.5,294.8,210.1,282,202.5,268.7z M318,400.9c0.2,0.3,0.4,0.7,0.6,1c-2.8,2.6-5.7,5.2-8.4,7.9c-3.9,3.9-4.3,8.1-1,11.3
		c3.2,3.3,7.4,3,11.4-0.9c6.7-6.6,13.3-13.4,20-19.9c2.9-2.8,4.6-5.8,2.9-9.8c-1.7-3.8-5.1-4.4-8.8-4.4c-52.4,0-104.8,0-157.2,0
		c-1.3,0-2.6,0-3.9,0.3c-3.8,0.8-6,3.9-5.7,7.7c0.3,3.6,2.9,6.3,6.6,6.6c1.3,0.1,2.6,0.1,3.9,0.1c45.2,0,90.4,0,135.6,0
		C315.2,400.9,316.6,400.9,318,400.9z M194,356.8c-0.3-0.4-0.6-0.8-0.9-1.2c3-2.7,6.1-5.2,8.8-8.1c3-3.1,2.8-7.3-0.1-10.2
		c-2.7-2.8-7-3.1-9.9-0.3c-7.6,7.4-15.2,14.8-22.4,22.5c-3.9,4.2-1.4,10.6,4.3,11.8c1.4,0.3,2.9,0.3,4.3,0.3c51.9,0,103.8,0,155.7,0
		c1.8,0,3.7-0.1,5.4-0.5c3.3-0.9,5.3-4,5-7.5c-0.3-3.4-2.8-6.1-6.2-6.6c-1.3-0.2-2.6-0.1-3.9-0.1c-34,0-68,0-101.9,0
		C219.3,356.8,206.6,356.8,194,356.8z"/>
	<path class="st1" d="M309.3,283.2c-10.2,0.1-18.9-2.7-26.1-9.2c-8-7.1-12.4-16.1-12.5-26.9c-0.1-32.4-0.2-64.8,0-97.2
		c0.1-18.8,14.8-34.1,33.4-35.7c1.6-0.1,3.1-0.2,4.7-0.2c43.1,0,86.3,0,129.4,0c18,0,32.2,10.2,36.7,26.6c0.9,3.3,1.4,6.9,1.4,10.4
		c0.1,31.6,0.1,63.3,0,94.9c-0.1,21.3-16,37.1-37.3,37.1c-21.2,0.1-42.3,0.1-63.5,0c-4.5,0-8.4,1.2-12.1,3.8
		c-21.6,15.2-43.3,30.2-65,45.2c-1.9,1.3-4.5,2.5-6.7,2.4c-5.6-0.3-8.1-6.2-5.1-11.5c6.6-11.7,13.3-23.4,20-35
		C307.5,286.6,308.2,285.2,309.3,283.2z M316.4,301c0.2,0.2,0.4,0.4,0.6,0.6c12.7-8.9,25.6-17.7,38.2-26.7c6.2-4.4,13-6.5,20.5-6.4
		c20.6,0.1,41.3,0.1,61.9,0c2.6,0,5.3-0.1,7.8-0.7c10.3-2.7,16.4-11.2,16.4-22.9c0-30.5,0-60.9,0-91.4c0-15.9-8.9-24.8-24.7-24.8
		c-42.3,0-84.7,0-127,0c-15.9,0-24.7,8.9-24.7,24.8c0,27.8,0,55.7,0,83.5c0,3.8-0.1,7.6,0.2,11.4c0.9,11.2,9.7,19.6,20.9,20
		c4.7,0.2,9.4,0,14.1,0.1c8.2,0.1,11.3,5.5,7.3,12.5C324,287.7,320.2,294.3,316.4,301z"/>
	<path class="st1" d="M202.5,268.7c7.6,13.3,15,26.1,22.2,38.9c1.1,1.9,1.7,4.5,1.4,6.6c-0.7,4.8-6.3,7.2-10.7,4.7
		c-2.5-1.4-4.8-3.2-7.1-4.8c-20-14-40.1-27.9-60.1-41.9c-3.7-2.6-7.6-3.8-12.1-3.8c-20.6,0.1-41.3,0.1-62,0
		c-23.5,0-38.8-15.3-38.9-38.7c0-30.8-0.1-61.7,0-92.5c0-19.2,12-33.9,30.4-37.3c2.7-0.5,5.5-0.5,8.2-0.5c43,0,86,0,129,0
		c22.6,0,38.2,15.6,38.2,38.2c0,30.7-0.4,61.4,0.1,92.1c0.4,23.3-18.3,39.2-36.6,38.7C204.1,268.4,203.6,268.6,202.5,268.7z
		 M194.9,286.8c0.2-0.1,0.4-0.3,0.6-0.4c-0.6-1.1-1.1-2.3-1.7-3.3c-3.4-5.9-6.8-11.7-10.1-17.7c-3.2-5.8-0.1-11.3,6.5-11.4
		c4-0.1,8.1,0,12.2,0c15.1,0,24.1-9.1,24.2-24.2c0-30.4,0-60.9,0-91.3c0-15.4-8.9-24.3-24.4-24.3c-42.5,0-84.9,0-127.4,0
		c-16,0-24.7,8.7-24.7,24.7c0,30.2,0,60.4,0,90.6c0,15.6,8.9,24.5,24.6,24.5c20.8,0,41.6,0.1,62.3,0c7.2,0,13.6,2,19.4,6.1
		C169.1,268.9,182,277.8,194.9,286.8z"/>
	<path class="st1" d="M318,400.9c-1.4,0-2.8,0-4.1,0c-45.2,0-90.4,0-135.6,0c-1.3,0-2.6,0.1-3.9-0.1c-3.6-0.4-6.3-3.1-6.6-6.6
		c-0.3-3.8,2-6.9,5.7-7.7c1.3-0.3,2.6-0.3,3.9-0.3c52.4,0,104.8,0,157.2,0c3.8,0,7.2,0.6,8.8,4.4c1.7,3.9,0,7-2.9,9.8
		c-6.7,6.6-13.3,13.3-20,19.9c-3.9,3.9-8.1,4.2-11.4,0.9c-3.3-3.3-2.9-7.4,1-11.3c2.7-2.7,5.6-5.3,8.4-7.9
		C318.4,401.5,318.2,401.2,318,400.9z"/>
	<path class="st1" d="M194,356.8c12.7,0,25.3,0,38,0c34,0,68,0,101.9,0c1.3,0,2.6-0.1,3.9,0.1c3.4,0.4,5.9,3.2,6.2,6.6
		c0.3,3.5-1.6,6.6-5,7.5c-1.7,0.5-3.6,0.5-5.4,0.5c-51.9,0-103.8,0-155.7,0c-1.4,0-2.9,0-4.3-0.3c-5.6-1.2-8.2-7.6-4.3-11.8
		c7.2-7.7,14.8-15.1,22.4-22.5c2.9-2.8,7.2-2.4,9.9,0.3c2.9,2.9,3.1,7.1,0.1,10.2c-2.8,2.9-5.9,5.4-8.8,8.1
		C193.4,356,193.7,356.4,194,356.8z"/>
	<path class="st2" d="M316.4,301c3.8-6.7,7.7-13.3,11.4-20c4-7.1,0.9-12.5-7.3-12.5c-4.7,0-9.4,0.1-14.1-0.1
		c-11.2-0.5-20-8.8-20.9-20c-0.3-3.8-0.2-7.6-0.2-11.4c0-27.8,0-55.7,0-83.5c0-15.9,8.9-24.8,24.7-24.8c42.3,0,84.7,0,127,0
		c15.9,0,24.7,8.9,24.7,24.8c0,30.5,0,60.9,0,91.4c0,11.7-6.1,20.2-16.4,22.9c-2.5,0.6-5.2,0.7-7.8,0.7c-20.6,0.1-41.3,0.1-61.9,0
		c-7.6,0-14.3,2-20.5,6.4c-12.7,9-25.5,17.8-38.2,26.7C316.8,301.3,316.6,301.2,316.4,301z M364.9,216.3c0.3,0.1,0.7,0.1,1,0.2
		c0,2.7-0.2,5.5,0,8.2c0.4,4.3,3.5,7,7.5,6.9c4-0.1,7-3.1,7.1-7.4c0.1-4.3,0-8.6,0-12.9c0.1-5.5,2.4-9.8,7.1-12.8
		c1.1-0.7,2.2-1.4,3.3-2.2c10.8-8.1,14.7-22.6,9.3-35.1c-5.2-12.1-18.5-19.7-31.1-17.6c-13.8,2.3-23.9,13.1-25,26.8
		c-0.4,5.6,2.1,9.3,6.7,9.7c4.4,0.4,7.3-2.7,7.9-8.2c0.7-7.7,5.7-13,13-13.9c6.6-0.9,13.2,3.1,15.5,9.5c2.5,6.8,0.1,13.8-6.5,17.9
		c-5.3,3.3-9.9,7.3-11.9,13.1C367,204.2,366.2,210.3,364.9,216.3z M373.5,253.8c3.9,0.1,7.2-3.1,7.4-7.1c0.1-4.2-3-7.5-7.2-7.6
		c-4-0.1-7.2,3-7.4,7C366.2,250.3,369.4,253.7,373.5,253.8z"/>
	<path class="st3" d="M194.9,286.8c-12.9-9-25.8-17.8-38.6-26.9c-5.9-4.1-12.2-6.1-19.4-6.1c-20.8,0.1-41.6,0.1-62.3,0
		c-15.7,0-24.6-8.9-24.6-24.5c0-30.2,0-60.4,0-90.6c0-16,8.7-24.7,24.7-24.7c42.5,0,84.9,0,127.4,0c15.5,0,24.4,8.8,24.4,24.3
		c0,30.4,0,60.9,0,91.3c0,15.1-9.1,24.1-24.2,24.2c-4.1,0-8.1-0.1-12.2,0c-6.6,0.2-9.7,5.6-6.5,11.4c3.3,6,6.7,11.8,10.1,17.7
		c0.6,1.1,1.2,2.2,1.7,3.3C195.3,286.5,195.1,286.6,194.9,286.8z M101.4,187.8c0.1-4-3-7.3-6.9-7.5c-4.2-0.2-7.6,3-7.7,7.1
		c-0.1,4,3.3,7.6,7.4,7.6C98,195,101.3,191.7,101.4,187.8z M130.9,187.5c-0.1-4.1-3.5-7.3-7.7-7.2c-4,0.2-7,3.4-7,7.4
		c0.1,4.1,3.5,7.4,7.6,7.2C127.7,194.8,131,191.3,130.9,187.5z M152.9,180.3c-4,0-7.2,3.1-7.3,7.1c-0.1,4,3.3,7.6,7.4,7.6
		c3.9,0,7.2-3.2,7.3-7.2C160.3,183.6,157.1,180.3,152.9,180.3z M189.7,187.7c0.1-3.9-3.1-7.3-7.1-7.4c-4.2-0.2-7.5,3-7.6,7.2
		c-0.1,4.1,3.3,7.5,7.4,7.5C186.3,194.9,189.7,191.6,189.7,187.7z"/>
	<path class="st1" d="M364.9,216.3c1.3-5.9,2.1-12,4-17.7c2-5.8,6.6-9.9,11.9-13.1c6.6-4.1,9.1-11.1,6.5-17.9
		c-2.3-6.3-8.9-10.3-15.5-9.5c-7.3,1-12.3,6.3-13,13.9c-0.5,5.5-3.5,8.6-7.9,8.2c-4.6-0.4-7.1-4.1-6.7-9.7
		c1.1-13.7,11.1-24.5,25-26.8c12.6-2.1,25.9,5.5,31.1,17.6c5.3,12.5,1.5,27-9.3,35.1c-1,0.8-2.2,1.5-3.3,2.2c-4.7,3-7,7.3-7.1,12.8
		c-0.1,4.3,0.1,8.6,0,12.9c-0.1,4.3-3.1,7.3-7.1,7.4c-4,0.1-7.2-2.7-7.5-6.9c-0.2-2.7,0-5.5,0-8.2
		C365.6,216.4,365.3,216.3,364.9,216.3z"/>
	<path class="st1" d="M373.5,253.8c-4.1-0.1-7.3-3.5-7.1-7.7c0.1-4,3.3-7,7.4-7c4.2,0.1,7.3,3.4,7.2,7.6
		C380.7,250.7,377.4,253.9,373.5,253.8z"/>
	<path class="st1" d="M101.4,187.8c-0.1,4-3.4,7.2-7.3,7.2c-4,0-7.5-3.5-7.4-7.6c0.1-4.1,3.6-7.3,7.7-7.1
		C98.4,180.5,101.5,183.8,101.4,187.8z"/>
	<path class="st1" d="M130.9,187.5c0.1,3.9-3.1,7.3-7,7.5c-4.1,0.2-7.6-3.1-7.6-7.2c-0.1-4,3-7.3,7-7.4
		C127.3,180.1,130.8,183.3,130.9,187.5z"/>
	<path class="st1" d="M152.9,180.3c4.2,0,7.4,3.3,7.3,7.5c-0.1,4-3.4,7.2-7.3,7.2c-4,0-7.5-3.5-7.4-7.6
		C145.7,183.4,148.9,180.3,152.9,180.3z"/>
	<path class="st1" d="M189.7,187.7c-0.1,3.9-3.4,7.2-7.3,7.3c-4.1,0-7.4-3.3-7.4-7.5c0.1-4.2,3.4-7.3,7.6-7.2
		C186.6,180.5,189.8,183.8,189.7,187.7z"/>
</g>
</svg>
