<?xml version="1.0" encoding="utf-8"?>
<!-- Generator: Adobe Illustrator 27.8.1, SVG Export Plug-In . SVG Version: 6.00 Build 0)  -->
<svg version="1.1" id="Layer_1" xmlns="http://www.w3.org/2000/svg" xmlns:xlink="http://www.w3.org/1999/xlink" x="0px" y="0px"
	 viewBox="0 0 512 512" style="enable-background:new 0 0 512 512;" xml:space="preserve">
<style type="text/css">
	.st0{fill:#3A3A3A;}
	.st1{fill:#67BAAF;}
	.st2{fill:#F58021;}
</style>
<g>
	<path class="st0" d="M329.7,450.5c-25.3-0.3-51.7-8-76.8-20c-55.6-26.5-100.9-65.7-138.1-114.5c-21.1-27.7-38.4-57.6-48.7-91.2
		c-7.7-24.9-10.8-50.2-4.6-76c1.5-6.3,3.6-12.5,6.1-18.5c9.4-22.4,37.1-28,54.7-11c10.8,10.5,21.4,21.3,32.1,32
		c11.6,11.6,23.3,23.3,34.9,34.9c10.8,10.8,11.4,23.9,1.9,35.9c-4.8,6.1-9.7,12.1-14.6,18.1c-4.3,5.4-4.5,9.2-0.7,14.8
		c21.2,30.6,47.1,56.5,77.8,77.7c5.3,3.7,9.3,3.5,14.5-0.6c6.4-5.1,12.7-10.3,19.1-15.3c11.1-8.8,24.4-8,34.6,2
		c22.5,22.3,45,44.6,67.4,67c17.4,17.4,11.9,45.6-10.8,55.4C363.9,447.7,348.5,450.5,329.7,450.5z M73.2,176.6
		c1.1,30,9.4,55.3,21.5,79.4c26,51.8,63.4,93.9,109.7,128.4c28.3,21.1,58.8,38.2,93.3,46.9c24.6,6.2,49.1,7.1,73.3-2.5
		c15-6,18.4-21.6,7-33.1c-21.8-22-43.8-43.9-65.7-65.8c-5.4-5.4-10.8-5.6-16.6-0.9c-6,4.9-11.9,9.9-17.9,14.8
		c-9.8,8-21.6,8.6-32,1.4c-32.5-22.4-59.9-49.8-82.3-82.3c-6.9-10.1-6.4-21.4,1.2-31c4.8-6.1,9.7-12.1,14.6-18.1
		c5.9-7.4,5.7-11.3-1-18c-21.4-21.4-42.9-42.9-64.3-64.3c-1.3-1.3-2.7-2.7-4.2-3.8c-9.7-7.3-23.5-3.6-28.4,7.5
		C75.2,149.2,73,164,73.2,176.6z"/>
	<path class="st0" d="M451,155.6c-0.7,69.6-71.8,116.9-135.9,90.2c-1.9-0.8-4.5-1-6.6-0.5c-10.9,2.7-21.8,5.8-32.7,8.6
		c-13.5,3.5-24.4-7.3-21-20.8c2.8-11,5.9-22,8.7-33.1c0.4-1.8,0.3-4.1-0.4-5.8c-24.7-57.6,11.1-123,73.1-134.1
		c48.7-8.7,100.6,23.1,111.5,73.3C449.4,140.7,449.9,148.2,451,155.6z M352.6,73.2c-4.5,0.4-9,0.6-13.4,1.4
		c-54.2,9.4-84.8,65.9-62.9,116.2c1.7,3.9,2.1,7.7,0.9,11.9c-3,11.1-6,22.3-8.9,33.4c-1.1,4.2-0.2,5.1,3.9,4c11-2.9,22.1-5.8,33-8.9
		c4.6-1.3,8.6-0.6,13.1,0.7c9.3,2.8,18.8,6.2,28.3,6.9c47.2,3.5,87.6-33.9,88.6-81.3C436.2,111.4,398.7,73.3,352.6,73.2z"/>
	<path class="st1" d="M73.2,176.6c-0.2-12.5,2-27.3,8.2-41.4c4.9-11.1,18.7-14.8,28.4-7.5c1.5,1.1,2.9,2.5,4.2,3.8
		c21.5,21.4,42.9,42.9,64.3,64.3c6.7,6.7,6.9,10.6,1,18c-4.9,6-9.7,12-14.6,18.1c-7.6,9.6-8.2,20.9-1.2,31
		c22.3,32.5,49.8,60,82.3,82.3c10.4,7.2,22.3,6.6,32-1.4c6-4.9,11.9-9.9,17.9-14.8c5.8-4.8,11.3-4.5,16.6,0.9
		c21.9,21.9,43.9,43.8,65.7,65.8c11.4,11.5,8,27.1-7,33.1c-24.1,9.6-48.7,8.7-73.3,2.5c-34.6-8.7-65-25.8-93.3-46.9
		c-46.3-34.5-83.7-76.6-109.7-128.4C82.6,231.9,74.3,206.6,73.2,176.6z"/>
	<path class="st2" d="M352.6,73.2c46.1,0.1,83.6,38.3,82.6,84.3c-1,47.4-41.4,84.8-88.6,81.3c-9.6-0.7-19-4.1-28.3-6.9
		c-4.5-1.3-8.5-2-13.1-0.7c-11,3.1-22,6-33,8.9c-4.1,1.1-5,0.2-3.9-4c2.9-11.2,5.9-22.3,8.9-33.4c1.1-4.1,0.8-7.9-0.9-11.9
		c-21.9-50.3,8.7-106.8,62.9-116.2C343.7,73.8,348.2,73.6,352.6,73.2z M338.9,156.6c0,7.8,6.2,13.9,14.1,13.9
		c7.5,0,13.8-6.2,13.8-13.8c0-7.8-6.2-14.1-13.9-14.1C345.1,142.6,339,148.7,338.9,156.6z M381.5,156.8c0.1,7.6,6.4,13.8,13.9,13.6
		c7.7-0.1,14.1-6.5,13.9-14.1c-0.1-7.7-6.4-13.8-14.2-13.8C387.3,142.6,381.4,148.8,381.5,156.8z M324.6,156.6
		c0-7.8-6.1-13.9-13.9-14c-7.8-0.1-13.9,6-13.9,13.9c-0.1,7.5,6.2,13.9,13.6,13.9C317.8,170.5,324.6,163.9,324.6,156.6z"/>
	<path class="st0" d="M338.9,156.6c0-7.8,6.2-14,13.9-14c7.6,0,13.9,6.3,13.9,14.1c0,7.5-6.2,13.8-13.8,13.8
		C345.1,170.4,338.9,164.3,338.9,156.6z"/>
	<path class="st0" d="M381.5,156.8c-0.1-8,5.9-14.2,13.6-14.2c7.8,0,14.1,6,14.2,13.8c0.1,7.6-6.2,14-13.9,14.1
		C387.8,170.5,381.5,164.3,381.5,156.8z"/>
	<path class="st0" d="M324.6,156.6c0,7.4-6.8,13.9-14.2,13.9c-7.5-0.1-13.7-6.4-13.6-13.9c0.1-7.9,6.2-14,13.9-13.9
		C318.4,142.6,324.6,148.8,324.6,156.6z"/>
</g>
</svg>
