<?xml version="1.0" encoding="utf-8"?>
<!-- Generator: Adobe Illustrator 27.8.1, SVG Export Plug-In . SVG Version: 6.00 Build 0)  -->
<svg version="1.1" id="Layer_1" xmlns="http://www.w3.org/2000/svg" xmlns:xlink="http://www.w3.org/1999/xlink" x="0px" y="0px"
	 viewBox="0 0 512 512" style="enable-background:new 0 0 512 512;" xml:space="preserve">
<style type="text/css">
	.st0{fill:#3A3A3A;}
	.st1{fill:#67BAAF;}
	.st2{fill:#F58021;}
</style>
<g>
	<path class="st0" d="M255.7,433.4c-55.6,0-111.2,0-166.8,0c-13.4,0-23.6-8.1-26.2-20.8c-0.4-2-0.4-4.1-0.4-6.2
		c0-63.8,0-127.7-0.1-191.5c0-6.9,2.6-12.4,7.9-16.7c13.8-11.4,27.5-22.8,41.4-34.1c1.8-1.5,2.5-2.9,2.5-5.2
		c-0.1-32.3,0-38.3,0-70.6c0-10.7,4.6-15.3,15.3-15.3c84.4,0,168.7,0,253.1,0c10.7,0,15.3,4.6,15.3,15.3c0,32.2,0,38.1-0.1,70.3
		c0,2.5,0.7,4.1,2.7,5.8c13.7,11.2,27.2,22.5,40.9,33.7c5.5,4.5,8.1,10.1,8.1,17.3c-0.1,63.6,0,127.2-0.1,190.8
		c0,16.6-10.7,27.3-27.3,27.3C366.4,433.4,311.1,433.4,255.7,433.4z M275.2,325.8c1.5,0.9,2.5,1.6,3.6,2.2
		c30.8,17.8,61.7,35.6,92.6,53.3c1,0.6,2,1.1,2.9,1.8c2.7,2,3.4,5.5,1.9,8.3c-1.6,3-5.1,4.2-8.2,2.8c-1.1-0.5-2.2-1.2-3.3-1.8
		c-95.1-54.9-190.2-109.8-285.3-164.6c-1.2-0.7-2.4-1.3-3.8-2c-0.1,1.3-0.2,2.2-0.2,3c0,59.3,0,118.5,0,177.8c0,8.9,5.1,14,14.2,14
		c110.8,0,221.7,0,332.5,0c9.2,0,14.1-5.1,14.1-14.4c0-58.8,0-117.6,0-176.4c0-1.1-0.1-2.1-0.2-3.6
		C382.1,259.5,328.8,292.5,275.2,325.8z M127,86c-0.1,1.2-0.2,2-0.2,2.8c0,58.3,0,90.3-0.1,148.7c0,2.2,1,3.2,2.7,4.2
		c43.4,25.1,86.8,50.3,130.1,75.5c1.9,1.1,3.3,1.1,5.2-0.1c39-24.2,78-48.4,117.1-72.6c2.1-1.3,2.9-2.7,2.9-5.2
		c-0.1-58.7-0.1-91-0.1-149.7c0-1.2-0.1-2.4-0.2-3.6C298.4,86,212.9,86,127,86z M397.8,178.9c0,18.8,0,36.9,0,55.6
		c12.8-7.9,25.2-15.6,38.4-23.8C423.2,200,410.7,189.7,397.8,178.9z M113.8,178.8c-13.1,10.8-25.5,21.1-38.5,31.9
		c13.1,7.6,25.6,14.7,38.5,22.1C113.8,214.6,113.8,197.2,113.8,178.8z"/>
	<path class="st1" d="M275.2,325.8c53.6-33.3,106.9-66.3,160.6-99.6c0.1,1.5,0.2,2.6,0.2,3.6c0,58.8,0,117.6,0,176.4
		c0,9.2-5,14.4-14.1,14.4c-110.8,0-221.7,0-332.5,0c-9,0-14.1-5.1-14.2-14c0-59.3,0-118.5,0-177.8c0-0.9,0.1-1.8,0.2-3
		c1.5,0.8,2.7,1.4,3.8,2c95.1,54.9,190.2,109.8,285.3,164.6c1.1,0.6,2.2,1.3,3.3,1.8c3.2,1.4,6.6,0.2,8.2-2.8
		c1.5-2.8,0.8-6.3-1.9-8.3c-0.9-0.7-1.9-1.2-2.9-1.8c-30.9-17.8-61.7-35.6-92.6-53.3C277.7,327.4,276.7,326.7,275.2,325.8z
		 M178.1,343.5c-25.8,0-51.4,0-76.9,0c0,4.3,0,8.4,0,12.6c25.7,0,51.2,0,76.9,0C178.1,351.8,178.1,347.8,178.1,343.5z M152.4,375.7
		c-17.3,0-34.3,0-51.2,0c0,4.3,0,8.3,0,12.4c17.2,0,34.2,0,51.2,0C152.4,383.9,152.4,379.9,152.4,375.7z"/>
	<path class="st2" d="M384.7,89.6c0-1.2-0.1-2.4-0.2-3.6c-86,0-171.6,0-257.5,0c-0.1,1.2-0.2,2-0.2,2.8c0,58.3,0,90.3-0.1,148.7
		c0,2.2,1,3.2,2.7,4.2c43.4,25.1,86.8,50.3,130.1,75.5c1.9,1.1,3.3,1.1,5.2-0.1c39-24.2,78-48.4,117.1-72.6c2.1-1.3,2.9-2.7,2.9-5.2
		C384.7,180.7,384.7,148.3,384.7,89.6z"/>
	<path class="st1" d="M397.8,178.9c13,10.8,25.4,21.1,38.4,31.8c-13.1,8.1-25.5,15.8-38.4,23.8C397.8,215.9,397.8,197.8,397.8,178.9
		z"/>
	<path class="st1" d="M113.8,178.8c0,18.4,0,35.8,0,54c-12.9-7.4-25.3-14.6-38.5-22.1C88.3,199.9,100.8,189.6,113.8,178.8z"/>
	<path class="st0" d="M178.1,343.5c0,4.3,0,8.4,0,12.6c-25.7,0-51.2,0-76.9,0c0-4.2,0-8.3,0-12.6
		C126.7,343.5,152.3,343.5,178.1,343.5z"/>
	<path class="st0" d="M152.4,375.7c0,4.2,0,8.2,0,12.4c-17.1,0-34,0-51.2,0c0-4.1,0-8.1,0-12.4C118.1,375.7,135.1,375.7,152.4,375.7
		z"/>
	<path class="st0" d="M283.8,239.9c1.2,3.7,2.5,7.1,3.3,10.6c0.2,0.8-1,2.3-1.9,2.8c-7.4,3.7-15.4,5.2-23.5,5.8
		c-24.1,1.8-45.3-4.6-61.5-23.2c-12.8-14.6-17.3-32.3-16.3-51.4c1.9-36.5,25.7-62.3,62-66.4c21.8-2.5,42.1,2.1,58.7,17.4
		c17.1,15.7,22.4,35.9,20.8,58.3c-0.6,8.1-3,15.7-7.1,22.8c-5.3,9.3-16.5,14.1-26.8,11.6c-6.3-1.5-9.3-4.2-13.9-12.3
		c-0.3,0.3-0.7,0.6-1,0.9c-13,18-45.5,15.9-56.8-6.8c-6.8-13.5-7-27.4-0.3-41c10.3-20.9,37.6-25.8,55-10c0.2,0.2,0.5,0.3,1.3,0.8
		c0-3.1,0-5.9,0-8.9c5.8,0,11.1,0,16.8,0c0,1.4,0,2.6,0,3.8c0,16.4,0,32.8,0,49.2c0,5.8,2.3,9.5,6.3,10.1c4.6,0.7,8.9-2.1,10.7-7.3
		c7-20,3.7-49-16.3-64.4c-22.9-17.7-61.2-15.9-80.4,4.9c-16.2,17.5-18.7,38.5-12.4,60.7c5.5,19.3,18.6,31.5,38,36.5
		c14.3,3.7,28.4,2.4,42-3.2C281.4,240.9,282.4,240.5,283.8,239.9z M253.7,213.5c13.6,0,23-9.9,23-24.5c0.1-13.9-9.6-24.2-22.7-24.2
		c-13.1,0.1-22.2,9.9-22.2,24.1C231.7,203.8,240.4,213.4,253.7,213.5z"/>
</g>
</svg>
