<?xml version="1.0" encoding="utf-8"?>
<!-- Generator: Adobe Illustrator 24.2.1, SVG Export Plug-In . SVG Version: 6.00 Build 0)  -->
<svg version="1.1" id="Layer_1" xmlns="http://www.w3.org/2000/svg" xmlns:xlink="http://www.w3.org/1999/xlink" x="0px" y="0px"
	 viewBox="0 0 569.2 115" style="enable-background:new 0 0 569.2 115;" xml:space="preserve">
<style type="text/css">
	.st0{fill:#FCFCFC;}
	.st1{fill:#FFFFFF;}
</style>
<g>
	<path class="st0" d="M46,96.2V83.4l3-3.7h13.5l2.7,3.3v3h-5.3v-1.4l-0.5-0.6h-6.9l-1.1,1.3v9l1.1,1.3h6.9l0.5-0.6v-2.7h-5.7v-4.1
		h11v8.2l-2.7,3.3H48.9L46,96.2z"/>
	<path class="st0" d="M68.1,99.9V79.7h5.1v20.2H68.1z"/>
	<path class="st0" d="M76.2,96.5v-8.3l2.7-3.4h11.2l2.7,3.4v8.3l-2.7,3.4H78.9L76.2,96.5z M86.8,96.4l0.9-1.1v-5.8l-0.9-1.1h-4.5
		l-0.9,1.1v5.8l0.9,1.1H86.8z"/>
	<path class="st0" d="M95.6,79.7h5.1v7.1l1.6-1.9h7.2l2.7,3.4v8.3l-2.7,3.4h-7.9l-1.7-2.1l-0.2,2.1h-4V79.7z M106.2,96.4l0.9-1.1
		v-5.6l-0.9-1.1h-3.8l-1.6,2v4.2l1.4,1.7H106.2z"/>
	<path class="st0" d="M114.5,97.2v-3.7l2.2-2.7h9.1V89l-0.5-0.7h-4.8l-0.1,0.1V89H115v-1.5l2.1-2.6h11l2.7,3.4v11.6h-4l-0.2-2.1
		l-1.7,2.1h-8.2L114.5,97.2z M124.8,96.5l1.1-1.3v-1.6h-5.7l-0.4,0.5V96l0.4,0.5H124.8z"/>
	<path class="st0" d="M134,99.9V79.7h5.1v20.2H134z"/>
	<path class="st0" d="M154.5,79.7h8l6.5,20.2h-5.8l-1.1-3.8h-7.7l-1.1,3.8H148L154.5,79.7z M155.7,91.7h5.1l-2.5-8.5L155.7,91.7z"/>
	<path class="st0" d="M170.7,99.9V79.7h5.1v20.2H170.7z"/>
	<path class="st0" d="M180.2,96.5v-7.7h-2.2v-3.9h2.2V81h5.1v3.9h5.1v3.9h-5.1v6.1l0.7,0.9h4.4v4.1h-7.5L180.2,96.5z"/>
	<path class="st0" d="M192.6,96.5v-8.3l2.7-3.3H206l2.7,3.3v5.4h-11.4v1.8l0.7,0.9h5.5l0.1-0.1v-0.6h5v1.9l-2,2.4h-11.5L192.6,96.5z
		 M204,90.8v-1.6l-0.6-0.8H198l-0.6,0.8v1.6H204z"/>
	<path class="st0" d="M211.5,84.9h4l0.2,2.1l1.7-2.1h4.5v4.6h-4.3l-1.1,1.3v9.1h-5.1V84.9z"/>
	<path class="st0" d="M224.2,84.9h4l0.2,2.1l1.7-2.1h7.3l2.7,3.4v11.6h-5.1v-9.7l-0.9-1.1h-3.6l-1.2,1.5v9.4h-5.1V84.9z"/>
	<path class="st0" d="M242.7,97.2v-3.7l2.2-2.7h9.1V89l-0.5-0.7h-4.8l-0.1,0.1V89h-5.3v-1.5l2.1-2.6h11l2.7,3.4v11.6h-4l-0.2-2.1
		l-1.7,2.1h-8.2L242.7,97.2z M252.9,96.5l1.1-1.3v-1.6h-5.7l-0.4,0.5V96l0.4,0.5H252.9z"/>
	<path class="st0" d="M262.9,96.5v-7.7h-2.2v-3.9h2.2V81h5.1v3.9h5.1v3.9h-5.1v6.1l0.7,0.9h4.4v4.1h-7.5L262.9,96.5z"/>
	<path class="st0" d="M275.4,96.5v-8.3l2.7-3.3h10.7l2.7,3.3v5.4h-11.4v1.8l0.7,0.9h5.5l0.1-0.1v-0.6h5v1.9l-2,2.4h-11.5L275.4,96.5
		z M286.8,90.8v-1.6l-0.6-0.8h-5.4l-0.6,0.8v1.6H286.8z"/>
	<path class="st0" d="M302,96.2V83.4l3-3.7h13l3,3.7v3.9h-5.3v-2.1l-0.9-1.1h-6.3l-1.1,1.3v8.8l1.1,1.3h6.3l0.9-1.1v-2.3h5.3v4
		l-3,3.7h-13L302,96.2z"/>
	<path class="st0" d="M323.3,96.5v-8.3l2.7-3.4h11.2l2.7,3.4v8.3l-2.7,3.4H326L323.3,96.5z M333.9,96.4l0.9-1.1v-5.8l-0.9-1.1h-4.5
		l-0.9,1.1v5.8l0.9,1.1H333.9z"/>
	<path class="st0" d="M342.7,84.9h4L347,87l1.7-2.1h7l1.6,2l1.6-2h7.3l2.7,3.4v11.6h-5.1v-9.7l-0.9-1.1h-3.3l-1.2,1.5v9.4h-5.1v-9.7
		l-0.9-1.1H349l-1.2,1.5v9.4h-5.1V84.9z"/>
	<path class="st0" d="M371.9,84.9h4l0.2,2.1l1.7-2.1h7l1.6,2l1.6-2h7.3l2.7,3.4v11.6h-5.1v-9.7l-0.9-1.1h-3.3l-1.2,1.5v9.4h-5.1
		v-9.7l-0.9-1.1h-3.3l-1.2,1.5v9.4h-5.1V84.9z"/>
	<path class="st0" d="M401.1,96.5V84.9h5.1v9.7l0.9,1.1h3.6l1.2-1.5v-9.4h5.1v15h-4l-0.3-2.1l-1.7,2.1h-7.3L401.1,96.5z"/>
	<path class="st0" d="M420.1,84.9h4l0.2,2.1l1.7-2.1h7.3l2.7,3.4v11.6H431v-9.7l-0.9-1.1h-3.6l-1.2,1.5v9.4h-5.1V84.9z"/>
	<path class="st0" d="M439.2,79.7h5.1v3.7h-5.1V79.7z M439.2,99.9v-15h5.1v15H439.2z"/>
	<path class="st0" d="M447.3,96.5v-8.3l2.7-3.3h11.1l2.3,2.9v2.4h-5.3v-0.9l-0.7-0.8h-4l-0.9,1.1v5.6l0.9,1.1h4l0.7-0.9v-0.9h5.3V97
		l-2.3,2.9H450L447.3,96.5z"/>
	<path class="st0" d="M465.4,97.2v-3.7l2.2-2.7h9.1V89l-0.5-0.7h-4.8l-0.1,0.1V89h-5.3v-1.5l2.1-2.6h11l2.7,3.4v11.6h-4l-0.2-2.1
		l-1.7,2.1h-8.2L465.4,97.2z M475.6,96.5l1.1-1.3v-1.6H471l-0.4,0.5V96l0.4,0.5H475.6z"/>
	<path class="st0" d="M485.6,96.5v-7.7h-2.2v-3.9h2.2V81h5.1v3.9h5.1v3.9h-5.1v6.1l0.7,0.9h4.4v4.1h-7.5L485.6,96.5z"/>
	<path class="st0" d="M498,96.5v-8.3l2.7-3.4h11.2l2.7,3.4v8.3l-2.7,3.4h-11.2L498,96.5z M508.6,96.4l0.9-1.1v-5.8l-0.9-1.1h-4.5
		l-0.9,1.1v5.8l0.9,1.1H508.6z"/>
	<path class="st0" d="M517.5,84.9h4l0.2,2.1l1.7-2.1h4.5v4.6h-4.3l-1.1,1.3v9.1h-5.1V84.9z"/>
</g>
<g>
	<path class="st1" d="M216.7,56.1V20.8l7.8-7.8H253l7.4,7.4v8.9h-14v-4.4l-1.5-1.6h-11.7l-2.5,2.5v25.9l2.5,2.4h11.7l1.5-1.5v-7.2
		h-10.3V35.2h24.4v21.3l-7.4,7.4h-28.6L216.7,56.1z"/>
	<path class="st1" d="M277,13h20.9l13.4,50.9h-14.5l-2.3-10h-15.3l-2.3,10h-13.3L277,13z M281.7,43.6h10.5L287,21L281.7,43.6z"/>
	<path class="st1" d="M314.1,56.1V20.8L322,13h27.4l7.9,7.8v10.7h-14v-6l-2.3-2.3h-10.3l-2.5,2.5v25.7l2.5,2.4h10.3l2.3-2.2v-6.4h14
		v10.8l-7.9,7.8H322L314.1,56.1z"/>
</g>
</svg>
